<?xml version="1.0" encoding="utf-8"?>
<!-- Generator: Adobe Illustrator 23.0.1, SVG Export Plug-In . SVG Version: 6.00 Build 0)  -->
<svg version="1.1" id="Layer_1" xmlns="http://www.w3.org/2000/svg" xmlns:xlink="http://www.w3.org/1999/xlink" x="0px" y="0px"
	 viewBox="0 0 50 50" style="enable-background:new 0 0 50 50;" xml:space="preserve">
<path d="M28.89,26.72l-2.49-0.83h0V25c0.79-0.85,1.38-2.16,1.6-3.29l0,0c0.02-0.11,0.04-0.21,0.05-0.31c0-0.01,0-0.01,0-0.02
	c0.01-0.05,0.01-0.1,0.02-0.14c0,0,0-0.01,0-0.01c0-0.04,0.01-0.09,0.01-0.13c0,0,0-0.01,0-0.01c0,0,0,0,0-0.01
	c0-0.04,0.01-0.09,0.01-0.13c0-0.01,0-0.02,0-0.03c0-0.04,0-0.09,0-0.13c0-1.88-1.52-3.4-3.4-3.4h0h0c-1.88,0-3.4,1.52-3.4,3.4
	c0,0.04,0,0.09,0,0.13c0,0.01,0,0.01,0,0.02c0,0.05,0,0.09,0.01,0.14c0,0,0,0,0,0c0,0.05,0.01,0.1,0.01,0.15c0,0,0,0,0,0
	c0.01,0.05,0.01,0.1,0.02,0.15c0,0,0,0,0,0c0.17,1.2,0.79,2.68,1.65,3.61v0.89l-2.49,0.83c-1.55,0.52-2.6,2.4-2.6,3.61v1.3h0h6.79h0
	h6.79h0v0h0v-1.3C31.49,29.11,30.44,27.24,28.89,26.72z"/>
</svg>
