<?xml version="1.0" encoding="utf-8"?>
<!-- Generator: Adobe Illustrator 23.0.1, SVG Export Plug-In . SVG Version: 6.00 Build 0)  -->
<svg version="1.1" id="Layer_1" xmlns="http://www.w3.org/2000/svg" xmlns:xlink="http://www.w3.org/1999/xlink" x="0px" y="0px"
	 viewBox="0 0 50 50" style="enable-background:new 0 0 50 50;" xml:space="preserve">
<path d="M32.17,14.89h-14.2c-0.36,0-0.66,0.3-0.66,0.66v18.68c0,0.37,0.3,0.66,0.66,0.66h14.2c0.36,0,0.66-0.29,0.66-0.66V15.55
	C32.83,15.19,32.54,14.89,32.17,14.89z M22.31,31.64h-2.15v-2.16h2.15V31.64z M22.31,27.71h-2.15v-2.16h2.15V27.71z M22.31,23.78
	h-2.15v-2.16h2.15V23.78z M26.2,31.64h-2.15v-2.16h2.15V31.64z M26.2,27.71h-2.15v-2.16h2.15V27.71z M26.2,23.78h-2.15v-2.16h2.15
	V23.78z M30.09,27.39v0.32v3.93h-2.15v-3.93v-0.32v-1.84h2.15V27.39z M30.09,23.78h-2.15v-2.16h2.15V23.78z M30.09,19.78h-9.93
	v-2.01h9.93V19.78z"/>
</svg>
