<?xml version="1.0" encoding="utf-8"?>
<!-- Generator: Adobe Illustrator 23.0.1, SVG Export Plug-In . SVG Version: 6.00 Build 0)  -->
<svg version="1.1" id="Layer_1" xmlns="http://www.w3.org/2000/svg" xmlns:xlink="http://www.w3.org/1999/xlink" x="0px" y="0px"
	 viewBox="0 0 50 50" style="enable-background:new 0 0 50 50;" xml:space="preserve">
<style type="text/css">
	.st0{fill:#231F20;}
</style>
<path class="st0" d="M31.93,20.42H29.3c0-0.02,0-0.03,0-0.05v-0.52c0-1.23-1-2.24-2.24-2.24h-3.49c-1.23,0-2.24,1-2.24,2.24v0.52
	c0,0.02,0,0.03,0,0.05h-2.63c-0.77,0-1.39,0.62-1.39,1.39V30c0,0.77,0.62,1.39,1.39,1.39h13.22c0.77,0,1.39-0.62,1.39-1.39v-8.19
	C33.32,21.05,32.7,20.42,31.93,20.42z M22.76,19.85c0-0.45,0.37-0.82,0.82-0.82h3.49c0.45,0,0.82,0.37,0.82,0.82v0.52
	c0,0.02,0,0.03,0,0.05h-5.12c0-0.02,0-0.03,0-0.05V19.85z M28.99,26.91c0,0.21-0.17,0.38-0.38,0.38h-1.96v1.96
	c0,0.21-0.17,0.38-0.38,0.38h-1.89c-0.21,0-0.38-0.17-0.38-0.38v-1.96h-1.96c-0.21,0-0.38-0.17-0.38-0.38v-1.89
	c0-0.21,0.17-0.38,0.38-0.38H24v-1.96c0-0.21,0.17-0.38,0.38-0.38h1.89c0.21,0,0.38,0.17,0.38,0.38v1.96h1.96
	c0.21,0,0.38,0.17,0.38,0.38V26.91z"/>
</svg>
