<?xml version="1.0" encoding="utf-8"?>
<!-- Generator: Adobe Illustrator 23.0.1, SVG Export Plug-In . SVG Version: 6.00 Build 0)  -->
<svg version="1.1" id="Layer_1" xmlns="http://www.w3.org/2000/svg" xmlns:xlink="http://www.w3.org/1999/xlink" x="0px" y="0px"
	 viewBox="0 0 50 50" style="enable-background:new 0 0 50 50;" xml:space="preserve">
<style type="text/css">
	.st0{fill:#FD6B3A;}
</style>
<path class="st0" d="M33.43,24.02l-3.75,3.75c-2.07,2.07-5.43,2.07-7.51,0c-0.33-0.33-0.58-0.69-0.81-1.07l1.74-1.74
	c0.08-0.08,0.19-0.13,0.28-0.19c0.12,0.41,0.33,0.8,0.66,1.13c1.03,1.04,2.72,1.03,3.75,0l3.75-3.75c1.04-1.04,1.04-2.72,0-3.75
	c-1.03-1.03-2.72-1.03-3.75,0l-1.33,1.34c-1.08-0.42-2.25-0.54-3.39-0.37l2.84-2.84c2.07-2.07,5.43-2.07,7.51,0
	C35.5,18.58,35.5,21.94,33.43,24.02L33.43,24.02z M23.5,30.19l-1.34,1.34c-1.03,1.03-2.72,1.03-3.75,0c-1.03-1.04-1.03-2.72,0-3.75
	l3.75-3.75c1.04-1.04,2.72-1.04,3.75,0c0.32,0.32,0.53,0.71,0.66,1.12c0.1-0.06,0.2-0.1,0.28-0.19l1.74-1.74
	c-0.22-0.38-0.48-0.75-0.81-1.07c-2.07-2.07-5.43-2.07-7.51,0l-3.75,3.75c-2.07,2.07-2.07,5.43,0,7.51c2.07,2.07,5.43,2.07,7.51,0
	l2.84-2.84C25.75,30.72,24.59,30.61,23.5,30.19L23.5,30.19z M23.5,30.19"/>
</svg>
