<?xml version="1.0" encoding="utf-8"?>
<!-- Generator: Adobe Illustrator 23.0.1, SVG Export Plug-In . SVG Version: 6.00 Build 0)  -->
<svg version="1.1" xmlns="http://www.w3.org/2000/svg" xmlns:xlink="http://www.w3.org/1999/xlink" x="0px" y="0px"
	 viewBox="0 0 100 100" style="enable-background:new 0 0 100 100;" xml:space="preserve">
<style type="text/css">
	.st0{fill:#FD6B3A;}
	.st1{opacity:0.85;fill:#FFFFFF;}
</style>
<g id="Layer_1">
	<rect width="100" height="100"/>
	<path class="st0" d="M43.52,27.3c0,0,1.15,1.27,0.15,2.15c0,0-1.43,1.4-1.97,1.49c-0.52,0-0.88,0.52-0.88,0.52
		c-0.91,0.38-2.85,0.24-2.85,0.24S35,30.61,34.3,29.58c0,0-0.55-0.76,0.27-1.67C34.58,27.91,38.16,23.15,43.52,27.3"/>
	<path class="st1" d="M52.37,28.51c0,0,0.21,0.29,0.14,0.46C52.57,28.86,52.73,28.54,52.37,28.51 M52.49,29
		c0.01-0.01,0.02-0.02,0.02-0.03C52.5,28.99,52.49,29,52.49,29 M62.92,72.46c0,0,1.4,1.13,2.29,1.34c0,0,1.18,0.93,0.5,1.11
		c0,0-1.92,0.32-4.26-0.2c0,0-0.84-0.32-1.22-0.16c0,0-2.38,0.29-1.92-1c0,0,0.54-2.01,0.77-2.51c0,0,0.2-1.36-0.18-2.13
		c0,0-0.29-0.45-0.07-0.57c0,0,0.23-0.5-0.23-1c0,0-0.93-3.3-0.29-6.07c0,0,0.14-0.05-0.34-0.54c0,0-0.88-1.4-2.51-2.31
		c0,0-1.97-1.52-2.51-2.53c0,0-1.45-2.35-2.08-0.45c0,0-0.23,0.7-0.52,0.84c0,0-0.66,0.93-0.81,2.78c0,0-0.05,1.27-0.43,1.67
		c0,0-0.32,0.39-0.32,0.68c0,0-1.13,2.26-2.13,1.99c0,0-0.7,0.81-1.36,1.06c0,0-0.5-0.11-0.48,0.29c0,0-0.25,0.47-0.57,0.59
		c0,0-1.97,2.13-2.69,2.81c0,0-1.02,0.79-1.04,1.29c0,0,0.02,0.57-0.52,0.16c0,0-1.47,1.79-1.34,3.89c0,0,1.24,2.44-0.41,1.79
		c0,0-2.17-0.32-2.78-1.25c0,0,0.16-0.23-0.57-0.43c0,0-1.31-0.61-0.5-1.47c0,0,1.68-2.24,2.31-2.17c0,0,1.22-1.15,1.36-1.56
		c0,0-0.29-0.32,0.18-0.5c0,0,0.66-0.81,0.79-1.27c0,0,1.86-3.55,3.98-4.66c0,0,2.17-0.97,2.22-2.99c0,0,0.54-3.87,0.7-4.93
		c0,0,0.29-1.15-0.05-1.92c0,0-0.43-2.83,0.27-4.84c0,0,0.63-0.5,0-0.79c0,0-0.79-0.57-0.75-2.83c0,0-0.02-4.59-1.49-4.05
		c0,0-7.9,2.22-7.31-0.54c0,0,0.14-0.84,0.05-1.97c0,0-0.02-2.83,1.06-4.55c0,0,0.34-0.79,0.14-1.38c0,0,1.45,0.11,2.13-0.18
		c0,0,0.27-0.38,0.66-0.38c0,0,0.25,0.81-0.29,0.81c0,0-0.84,0.14-0.72,1.4c0,0-0.45,2.4,0.05,3.42c0,0,0.09,1.15,0.45,0.14
		c0,0-0.2-0.32,0.32-0.66c0,0,1.49-2.56,3.19-2.56c0,0,0.16,0.11,0.43-0.09c0,0,0.61-0.41,1.68-0.14c0,0,0.36,0.14,0.91-0.09
		c0,0,0.45-0.14,0.75-0.04c0,0,0.05-0.43-0.23-0.72c0,0-1.38-0.72-1.27-1.27c0,0-0.45-1.31-0.07-1.54c0,0-0.34-3.96,3.76-3.87
		c0,0,2.63,0.39,2.76,2.78c0,0,0.61,0.16,0.5,0.93l-0.09,1.06c0,0,0.29,0.25,0.05,0.25l-0.07,0.27c0,0,0.2,0.18-0.05,0.18
		c0,0,0.18,1.4-0.34,1.31c0,0-0.84,0.09-0.18,0.2c0,0,5.89-0.45,6,2.51c0,0,0.79,1.06,1.02,1.83c0,0,0.16,1.13,1.45,1.65
		c0,0,2.42,1.74,0.61,3.37c0,0-1.36,0.61-2.01-0.63c0,0-3.15-2.58-3.19-2.01c0,0-0.25,0.39-0.47,0.41c0,0,0.66,5.98-0.72,6.93
		c0,0-0.34,0.25-0.11,0.66c0,0,0.61,2.42,1.43,2.81c0,0,3.87,3.69,3.49,4.69c0,0,3.76,5.64,2.47,6.43c0,0-0.41,0.61-0.43,2.11
		c0,0,0.59,5,0.05,5.55C61.72,68.68,61.63,71.44,62.92,72.46 M52.69,29.07c-0.14,0.18-0.02,0.41-0.02,0.41L52.69,29.07 M52.6,30.75
		c-0.05-0.66-0.11,0-0.11,0H52.6 M52.14,31.99c0.36,0.14,0.34-0.07,0.34-0.07l0.04-0.95l-0.11-0.02L52.14,31.99"/>
</g>
<g id="Layer_2">
</g>
</svg>
