<?xml version="1.0" encoding="utf-8"?>
<!-- Generator: Adobe Illustrator 23.0.1, SVG Export Plug-In . SVG Version: 6.00 Build 0)  -->
<svg version="1.1" xmlns="http://www.w3.org/2000/svg" xmlns:xlink="http://www.w3.org/1999/xlink" x="0px" y="0px"
	 viewBox="0 0 100 100" style="enable-background:new 0 0 100 100;" xml:space="preserve">
<style type="text/css">
	.st0{opacity:0.85;fill:#FFFFFF;}
	.st1{fill:#FD6B3A;}
</style>
<g id="Layer_1">
	<rect width="100" height="100"/>
	<path class="st0" d="M63.33,33.63c-0.15-1.14-0.45-2.14-0.45-2.39c0-0.25-0.1-0.35-0.1-0.35s-0.07-0.94-0.05-1.12
		c0.02-0.17,0.02-0.55,0.02-0.55s0.3,0.07,0.3-0.15c0-0.22-0.37-0.55-0.37-0.82c0-0.27-0.02-0.62,0.1-0.89
		c0.12-0.27,0.25-0.55,0.17-0.87c-0.07-0.32-0.12-0.47-0.12-0.47s-0.03-0.56-0.12-0.92c-0.12-0.5-0.4-0.42-0.47-0.35
		c0,0-0.2-0.4-0.32-0.6c-0.12-0.2-0.47,0-0.42,0.17c0.05,0.17,0.12,0.6,0.12,0.6s-0.32,0.05-0.3-0.15c0.03-0.2,0.12-0.65-0.1-0.77
		c-0.22-0.12-0.47-0.1-0.47,0.1c0,0.2,0.02,0.82,0.02,0.82s-0.37-0.05-0.7-0.1c-0.32-0.05-0.77,0.15-0.77,0.15s0.25-0.22,0-0.32
		c-0.25-0.1-1.17,0.82-1.32,1.04c-0.15,0.22-0.17,0.4-0.47,0.75c-0.3,0.35-0.6,0.79-0.82,0.99c-0.22,0.2-0.37,0.6-0.37,0.6
		s-0.2-0.05-0.35,0.12c-0.15,0.17-0.4,0.55-0.42,0.77c-0.02,0.22-0.02,0.27-0.08,0.47c-0.05,0.2-0.15,0.4-0.15,0.4
		s-0.12-0.22-0.42-0.65c-0.3-0.42-1.12-1.24-1.47-1.37c-0.35-0.12-1.27-0.57-2.21-0.1s-1.71,1.44-1.86,1.71
		c-0.15,0.27-0.42,0.97-0.27,1.79c0.15,0.82,0.57,1.96,0.57,1.96s-0.17,0-0.1,0.22c0.07,0.22,0.27,0.22,0.27,0.22s0.1,0.45,0.2,0.45
		l-0.02,0.05c0,0-0.75-0.05-1.29,0.12c-0.55,0.17-1.14,0.35-1.44,0.57c-0.3,0.22-1.17,0.62-1.22,1.54c0,0-0.02,0.07,0.07,0.35
		c0.1,0.27,0.47,0.89,0.62,1.02c0.15,0.12,0.35,0.6,0.35,0.8c0,0.2,0.03,0.92,0.2,1.02c0.17,0.1,0.45,1.29,0.5,1.42
		c0.05,0.12,0.17,0.94,0.37,1.04c0.2,0.1,0.25,0.52,0.25,0.75c0,0.22-0.45,0.92-0.32,1.47c0.12,0.55,0.42,1.22,0.7,1.76
		c0.27,0.55,0.3,0.62,0.45,0.7c0.15,0.07-0.08,0.27-0.08,0.65c0,0.37,0.08,0.62-0.05,0.7c-0.12,0.07-0.65,0.65-0.85,1.57
		c-0.2,0.92-0.4,1.96-0.3,2.88c0.1,0.92,0.27,1.34,0.17,1.79c-0.1,0.45-0.84,1.59-1.09,3.36c-0.25,1.76-0.3,2.96-0.77,3.33
		c-0.47,0.37-0.77,0.52-0.77,0.52S44,62.21,43.3,62.79c-0.7,0.57-0.75,1.19-1.29,1.62c-0.55,0.42-1.09,0.97-1.37,1.39
		c-0.27,0.42-0.4,0.42-0.4,0.42s-0.42-0.45-0.67-0.6c-0.25-0.15-0.4-0.37-0.84-0.27c-0.45,0.1-0.7,0.1-0.6,0.8
		c0.1,0.7,0.02,1.09,0.02,1.09s-0.52-0.25-0.89-0.07c-0.37,0.17-1.12,0.67-0.94,1.49c0.17,0.82,0.94,1.04,0.94,1.69
		c0,0.65-0.17,2.31,0.2,3.03c0.37,0.72,0.89,1.59,1.42,1.57c0.52-0.03,0.8-0.25,0.82-1.07c0.03-0.82-0.25-1.49-0.17-1.91
		c0.07-0.42,0.2-0.82,0.2-0.82s0.35,0.4,0.65,0.4s0.3,0,0.3,0s-0.57-0.35-0.67-0.5c-0.1-0.15,0.35,0.22,0.47,0.25
		c0.12,0.02-0.35-0.7-0.47-0.87c-0.12-0.17-0.47-0.27-0.35-0.52c0.12-0.25,0.55,0.07,0.67-0.07c0.12-0.15,0.27-0.62,0.45-0.77
		c0.17-0.15,0.55-0.5,0.72-0.75c0.14-0.2,0.17-0.15,0.15-0.35c0,0-0.35-0.25,0.42-0.72c0.77-0.47,2.73-1.64,3.46-2.21
		c0.72-0.57,1.39-0.85,1.74-0.92c0.35-0.07,0.57-0.1,0.57-0.1s0.2,0.95,0.22,1.57c0.03,0.62,0.07,2.51,0.57,2.96
		c0.5,0.45,1.02,0.45,1.04-0.45c0.03-0.89-0.45-1.27,0-1.91c0.45-0.65,0.4-0.97,0.5-1.04c0.1-0.07,0.45-0.02,0.57-0.2
		c0.12-0.17-0.22-0.55,0.12-0.75c0.35-0.2,0.65-0.25,0.84-0.37c0.2-0.12,0.6-0.32,0.6-0.32s-0.47,0.4-0.57,0.55
		c-0.1,0.15-0.2,0.37-0.2,0.37s0.99-0.72,1.07-0.77c0.07-0.05,0.47-0.35,0.55-0.4c0.07-0.05,0.05-0.3,0.05-0.3s2.63-0.65,3.33-0.75
		c0.69-0.1,1.61-0.45,2.44-0.5c0.82-0.05,1.09,0.05,1.54-0.17c0.45-0.22,0.52-0.32,0.52-0.32s0.94-0.3,1.19-0.55
		c0.25-0.25,0.07-0.37,0.3-0.6c0.22-0.22,0.02-0.87-0.17-1.42c-0.2-0.55-0.55-0.82-0.7-1.29c-0.15-0.47-0.5-1.32-0.57-1.54
		c-0.07-0.22-0.22-0.3-0.17-0.42c0.05-0.12-0.05-0.52-0.12-0.7c-0.07-0.17-0.25-0.37-0.27-0.55c-0.02-0.17-0.37-0.2-0.42-0.45
		c-0.05-0.25-0.17-0.5-0.3-0.6c-0.12-0.1-0.32-0.3-0.37-0.55c-0.05-0.25-0.4-0.27-0.42-0.47c-0.02-0.2-0.25-0.4-0.42-0.4
		c-0.17,0-0.97-0.94-1.12-1.27c-0.15-0.32-0.8-0.82-0.85-0.99c-0.05-0.17-0.17-0.15-0.17-0.15s0.07-0.17,0-0.37
		c-0.07-0.2,0.4-0.22,0.45-0.89c0.05-0.67,0.1-1.04,0-1.24c-0.1-0.2-0.32-0.25-0.32-0.37c0-0.12,0.05-0.55,0.2-0.77
		c0.15-0.22,0.15-0.45,0.03-0.99c-0.12-0.55-0.22-1.49-0.05-1.64c0.17-0.15-0.05-0.27-0.05-0.62c0-0.35,0.17-1.07,0.37-1.74
		c0.2-0.67,0.25-1.71,0.35-1.94s0.1-0.75,0.2-0.75c0.1,0,0.97,0.35,1.79,0.22c0,0,0.62-0.03,0.97-0.22c0.35-0.2,0.35-0.2,0.35-0.2
		s0.4,0.12,0.6,0.07c0.2-0.05,0.5-0.07,0.6-0.17c0.1-0.1,0.12-0.15,0.12-0.15s0.72,0.2,1.07-0.32
		C63.43,36.64,63.48,34.78,63.33,33.63z M56.65,57.59c0.47,0.32,1.14,1.17,1.14,1.17s-0.5,0.12-0.89,0.25
		c-0.4,0.12-0.6,0.37-1.17,0.55c-0.57,0.17-3.11,1.42-3.31,1.34c-0.2-0.07-0.1,0.07-0.4,0.07c-0.3,0-0.62-1.57-0.62-1.57
		s0.22-0.37,0.35-0.67c0.12-0.3,0.35-0.65,0.37-0.97c0.02-0.32,0.37-0.57,0.45-0.99c0.07-0.42,0.35-0.6,0.35-0.82
		c0-0.22,0.27-0.8,0.37-0.99c0.1-0.2,0.3-0.02,0.37,0.07c0.07,0.1,0.84,0.85,1.29,1.24C55.41,56.67,56.18,57.27,56.65,57.59z
		 M61.35,31.36c0,0.32-0.05,1.59-0.22,2.01c-0.17,0.42-0.22,1.54-0.37,1.59c-0.15,0.05-0.22,0.15-0.22,0.15s-0.05-0.05-0.57-0.27
		c-0.52-0.22-0.94-0.07-0.94-0.07s0.03-0.07,0-0.35c-0.03-0.27-0.5-0.57-0.5-0.77c0-0.2-0.05-0.27-0.17-0.32
		c-0.12-0.05-0.2-0.62-0.55-0.82c-0.35-0.2-1.67,0-1.67,0l0.55-1.76c0.15-0.2,0.15-0.72,0.15-0.72s0,0,0.62-0.32
		c0.62-0.32,0.17-0.72,0.27-0.72c0.1,0,0.3-0.47,0.3-0.47s0.03-0.1,0.17,0.45c0.15,0.55,0.97,1.27,1.69,1.37
		c0.72,0.1,1.39-0.55,1.39-0.55l0.07,1.14C61.35,30.91,61.35,31.03,61.35,31.36z"/>
	<path class="st1" d="M59.09,25.18c0,0,0.69-0.66,1.49-0.73c0.79-0.07,1.22,0.2,1.59,0.46c0.36,0.26,1.06,1.19,1.09,2.75
		c0.03,1.55-0.66,3.24-1.72,3.97c-1.06,0.73-1.65,0.99-2.71,0.6c-1.06-0.4-1.59-2.15-1.59-2.35c0-0.2-0.03-1.06,0.86-1.29
		c0.89-0.23,1.49-0.4,1.62-0.6c0.13-0.2-0.07-0.53-0.27-0.53s-1.12,0.3-1.26,0.3c-0.13,0,0.69-0.73,1.12-0.93
		c0.43-0.2,0.79-0.43,0.73-0.86c-0.07-0.43-0.46-0.23-0.7-0.1c-0.23,0.13-0.5,0.2-0.5,0.2s1.03-0.56,1.06-0.83
		c0.03-0.26-0.17-0.4-0.36-0.3C59.36,25.05,59.09,25.18,59.09,25.18z"/>
</g>
<g id="Layer_2">
</g>
</svg>
