<?xml version="1.0" encoding="utf-8"?>
<!-- Generator: Adobe Illustrator 23.0.1, SVG Export Plug-In . SVG Version: 6.00 Build 0)  -->
<svg version="1.1" id="Layer_1" xmlns="http://www.w3.org/2000/svg" xmlns:xlink="http://www.w3.org/1999/xlink" x="0px" y="0px"
	 viewBox="0 0 50 50" style="enable-background:new 0 0 50 50;" xml:space="preserve">
<g>
	<path d="M17.53,23.25c0.15-0.05,0.31-0.1,0.46-0.16v-4.31c-0.73,0.55-1.39,1.1-2.2,1.65c-0.28,0.19-0.37,0.55-0.19,0.81
		c0.43,0.63,0.88,1.26,1.35,1.88C17.13,23.38,17.26,23.43,17.53,23.25L17.53,23.25z"/>
	<path d="M19.18,30.93c0.02,0.3,0.04,0.6,0.07,0.91c0.02,0.31,0.3,0.56,0.61,0.56h0.4V17.86c0,0-0.14,0.02-0.21,0.02
		c-0.44,0-0.88,0.12-1.28,0.36v4.59c0.08-0.03,0.16-0.06,0.24-0.08C18.95,25.47,19,28.21,19.18,30.93L19.18,30.93z"/>
	<path d="M22.05,17.7c-0.15,0.01-0.46,0.03-0.46,0.03v14.66h0.96V19.09c-0.34-0.34-0.54-0.77-0.52-1.24
		C22.04,17.8,22.05,17.75,22.05,17.7L22.05,17.7z"/>
	<path d="M23.91,32.39h1.24V19.78c-0.18,0.03-0.35,0.04-0.55,0.04c-0.24,0-0.48-0.02-0.7-0.07C23.93,19.78,23.91,32.39,23.91,32.39z
		"/>
	<path d="M26.49,32.39h1.19V17.74c0,0-0.35-0.03-0.53-0.04c0.01,0.05,0.01,0.1,0.01,0.15c0.02,0.54-0.23,1.03-0.68,1.38V32.39z"/>
	<path d="M30.47,18.26c-0.4-0.25-0.86-0.38-1.32-0.38c-0.04,0-0.09-0.01-0.13-0.01c-0.09-0.01,0,14.53,0,14.53h0.32
		c0.31,0,0.58-0.25,0.61-0.56c0.02-0.3,0.05-0.6,0.07-0.91c0.18-2.72,0.24-5.45,0.17-8.18c0.09,0.03,0.19,0.06,0.28,0.1V18.26
		L30.47,18.26z"/>
	<path d="M33.41,20.43c-0.8-0.54-1.44-1.08-2.16-1.62v4.29c0.14,0.05,0.28,0.1,0.42,0.14c0.28,0.19,0.4,0.13,0.59-0.13
		c0.46-0.63,0.91-1.26,1.35-1.88C33.78,20.98,33.69,20.62,33.41,20.43L33.41,20.43z"/>
	<path d="M26.36,17.66c-0.05,0-0.09,0-0.14-0.01c-0.26-0.01-0.52-0.02-0.78-0.02c-0.59-0.01-1.18-0.01-1.77,0
		c-0.26,0.01-0.52,0.01-0.78,0.03c-0.02,0-0.04,0-0.06,0c-0.02,0.06-0.03,0.13-0.03,0.19c0,0.13,0.03,0.26,0.08,0.39
		c0.13,0.27,0.41,0.5,0.78,0.65c0.27,0.11,0.59,0.17,0.93,0.17c0.31,0,0.59-0.05,0.84-0.14c0.34-0.12,0.61-0.31,0.78-0.54
		c0.11-0.16,0.17-0.34,0.17-0.53C26.39,17.78,26.38,17.72,26.36,17.66L26.36,17.66z"/>
</g>
</svg>
