<?xml version="1.0" encoding="utf-8"?>
<!-- Generator: Adobe Illustrator 23.0.1, SVG Export Plug-In . SVG Version: 6.00 Build 0)  -->
<svg version="1.1" xmlns="http://www.w3.org/2000/svg" xmlns:xlink="http://www.w3.org/1999/xlink" x="0px" y="0px"
	 viewBox="0 0 100 100" style="enable-background:new 0 0 100 100;" xml:space="preserve">
<style type="text/css">
	.st0{opacity:0.85;fill:#FFFFFF;}
	.st1{fill:#FD6B3A;}
</style>
<g id="Layer_1">
	<rect width="100" height="100"/>
	<path class="st0" d="M55.68,60.95c0,0.23,0.46,0.73,0.59,0.89c0.13,0.17,0.86,0.66,0.99,0.83c0.13,0.16,0.76,1.06,1.72,1.22
		c0.96,0.17,2.77,0.33,3.14-1.02c0.21-0.77,0.25-1.02,0.25-1.1c0.05,0.05,0.17,0.17,0.31,0.17c0.17,0,1.02,0.63,1.22,0.89
		c0.2,0.26,1.98,1.78,2.71,1.78c0.73,0,1.58-1.12,1.19-2.05c-0.4-0.92-0.49-1.91-1.72-2.9c-1.22-0.99-2.44-1.82-3.04-2.41
		c-0.59-0.59-1.32-0.79-1.72-0.83c-0.4-0.03-1.02,0.36-1.02,0.36s-1.32-3.07-2.31-4.32c-0.99-1.25-1.65-2.21-1.85-2.8
		c-0.2-0.59-1.29-1.88-1.49-2.08c-0.2-0.2-0.26-0.36-0.26-0.36s0.59-0.33,0.99-0.46c0.4-0.13,0.92-0.16,0.92-0.86
		c0-0.69,0-0.69,0-0.69s1.02-1.55,1.06-2.24c0.03-0.69-0.03-2.34-0.2-2.67c-0.17-0.33-0.4-0.56-0.4-0.56s-0.26-0.26-0.23-0.46
		c0.03-0.2-0.33-0.66-0.49-0.76c-0.17-0.1-0.36-0.03-0.36-0.03s-0.56-0.99-1.32-1.42c0,0-0.79-0.56-0.99-0.69
		c-0.2-0.13-0.4-0.3-0.4-0.3s0.07-0.89,0.26-1.49c0.2-0.59,0.03-1.82-1.19-3.04c-1.22-1.22-2.01-1.52-3-1.35
		c-0.99,0.16-1.68,0.36-1.91,0.36s-0.56,0.03-0.56,0.03s0.13-0.79-0.1-0.79c-0.23,0-0.46-0.3-0.46-0.4c0-0.1,0.33-0.03,0.33-0.33
		c0-0.3,0.13-0.83-0.07-0.92c-0.2-0.1-0.2-0.1-0.2-0.1l-0.1-0.63l-0.17-0.13c0,0,0.1-1.35-1.78-2.47c-1.88-1.12-4.03-0.26-4.85,0.5
		c-0.83,0.76-1.29,2.24-1.29,2.24s-0.17-0.07-0.17,0.26c0,0.33,0,0.69,0,0.69s-0.33,0.03-0.33,0.56c0,0.53,0.33,0.63,0.33,0.63
		s-0.03,0.33-0.16,0.43c-0.13,0.1-0.13,0.66,0.03,0.89c0.16,0.23,0.33,0.86,0.33,0.86s-0.92,0.46-2.24,0.53
		c-1.32,0.07-2.38,0.33-2.9,1.12c-0.53,0.79-1.39,2.18-0.99,4.09c0.4,1.91,1.91,2.44,1.91,2.97c0,0-0.03,0.23,0.03,0.4
		c0.07,0.17-0.26,1.16-0.23,1.88c0.03,0.73,0.1,1.35,0.07,1.88c-0.03,0.53-0.03,1.75,0.03,1.85c0.07,0.1-0.3,0.73,0.07,1.45
		c0.36,0.73,0.73,0.79,0.86,0.82c0.13,0.03,0.86,0.73,1.16,0.79c0.3,0.07,1.35,0.59,1.68,0.69c0.33,0.1,1.12,0.46,1.19,0.79
		c0.07,0.33,0.23,0.73,0.79,0.96c0.56,0.23,1.15,0.43,1.35,0.33c0.2-0.1,0.36-0.23,0.36-0.23s0.3,0.16,0.53,0.1
		c0.23-0.07,0.23-0.07,0.23-0.07l0.13-0.07c0,0-0.07,0.73,0.3,1.65c0.36,0.92,0.79,1.95,0.79,1.95s-0.3,0.63-0.2,1.22
		c0.1,0.59,0.86,1.75,1.42,2.61c0.56,0.86,2.05,2.67,2.31,2.71c0.26,0.03,0.49-0.23,0.96-0.1c0.46,0.13,0.69,0.3,0.96,0.79
		c0.26,0.5,1.62,1.62,2.31,2.18c0.69,0.56,1.48,0.86,1.65,0.86c0.17,0,0.5-0.16,0.5-0.16s0.73,1.19,2.08,1.95
		c1.35,0.76,3.53,1.95,3.53,1.95s0.33,0.46,0.49,0.49c0.17,0.03,0.63,0.43,0.89,0.43c0.26,0,0.86,0.56,1.09,0.63
		c0.23,0.07,0.4,0.13,0.4,0.13s-0.13,0.73,0.33,0.79c0.46,0.07,0.56,0.07,0.56,0.33c0,0.26,0.03,0.92-0.46,1.09
		c-0.5,0.17-1.62,0.89-1.32,1.25c0.3,0.36,1.55,0.36,2.15,0.36c0.59,0,2.74-0.56,3.4-1.12c0.49-0.42,1.22-1.06,0.89-2.01
		c-0.33-0.96-0.53-0.59-0.79-0.92c-0.26-0.33-0.33-0.99-0.69-0.99c-0.36,0-0.66-0.07-0.66-0.07s-0.92-0.69-1.16-1.02
		c-0.23-0.33-0.4-0.76-0.89-1.09c-0.5-0.33-0.73-0.33-0.73-0.46c0-0.13-0.1-0.23-0.33-0.23c-0.23,0-0.43,0.1-0.43,0.1
		s-0.33-0.46-0.46-0.46s-0.33,0.03-0.33,0.03s-0.99-0.66-1.35-1.39c-0.36-0.73-0.46-1.12-1.72-1.91c-1.25-0.79-2.41-1.25-2.41-1.25
		s-0.43-0.49-0.76-1.09c-0.33-0.59-1.58-2.87-1.85-3.66c-0.26-0.79-0.36-1.65-0.36-1.65s2.24,2.84,2.54,3.33
		C54.88,59.9,55.68,60.72,55.68,60.95z M39.63,48.3c-0.2,0-0.32,0-0.32,0s0.02-0.32-0.22-0.35c-0.25-0.02-0.4,0.15-0.47,0.12
		c-0.08-0.02-0.52-0.32-0.57-0.54c-0.05-0.22-0.25-0.5-0.42-0.74c-0.12-0.17-0.49-0.3-0.49-0.3s-0.03-0.45-0.12-0.52
		c-0.1-0.07,0.05-0.57,0.05-0.57s0.44-0.59,0.52-0.99c0.07-0.4,0.07-0.77,0.17-0.82c0.1-0.05,0.3,0.5,0.45,0.67
		c0.15,0.17,0.45,0.42,0.47,0.72c0.03,0.3,0.77,0.94,0.92,1.41c0.15,0.47,0.37,1.51,0.44,1.63c0.07,0.12,0.12,0.32,0.12,0.32
		S39.83,48.3,39.63,48.3z"/>
	<path class="st1" d="M47.87,46.67c0,0-1.12-1.05-1.05-2.47c0.07-1.42,0.72-3.23,1.65-3.92c0.92-0.69,2.44-1.45,2.93-1.45
		c0.49,0,2.53-0.03,3.26,0.89c0.73,0.92,1.25,2.11,1.25,2.54c0,0.43-0.03,2.04-0.2,2.04c-0.17,0-1.71-1.48-1.98-1.68
		c-0.26-0.2-0.69-0.4-0.86-0.59c-0.16-0.2-0.92-0.49-1.05,0.1c-0.17,0.78,0.82,1.25,1.09,1.61c0.26,0.36,0.49,0.53,0.43,0.72
		c0,0-0.4,0.89-0.63,1.02c-0.23,0.13-0.89,0.13-1.48-0.16c-0.59-0.3-1.52-0.76-1.98-0.76c-0.46,0-0.72,0.2-0.53,0.72
		c0.2,0.53,1.12,1.15,1.32,1.28c0.2,0.13,0.66,0.33,0.66,0.33s-1.09,0.36-1.25,0.36c-0.16,0-0.53,0-0.86-0.16
		C48.27,46.94,47.87,46.67,47.87,46.67z"/>
</g>
<g id="Layer_2">
</g>
</svg>
