<?xml version="1.0" encoding="utf-8"?>
<!-- Generator: Adobe Illustrator 23.0.1, SVG Export Plug-In . SVG Version: 6.00 Build 0)  -->
<svg version="1.1" id="Layer_1" xmlns="http://www.w3.org/2000/svg" xmlns:xlink="http://www.w3.org/1999/xlink" x="0px" y="0px"
	 viewBox="0 0 50 50" style="enable-background:new 0 0 50 50;" xml:space="preserve">
<g>
	<path d="M34.85,21.53l-1.5-1.48c-0.44,0.44-0.98,0.66-1.61,0.66c-0.63,0-1.17-0.22-1.61-0.66c-0.44-0.44-0.66-0.98-0.66-1.61
		c0-0.63,0.22-1.17,0.66-1.61l-1.48-1.48c-0.29-0.29-0.65-0.44-1.07-0.44c-0.42,0-0.78,0.15-1.07,0.44L15.73,26.09
		c-0.29,0.29-0.44,0.65-0.44,1.07c0,0.42,0.15,0.78,0.44,1.07l1.48,1.5c0.44-0.44,0.98-0.66,1.61-0.66c0.63,0,1.17,0.22,1.61,0.66
		c0.44,0.44,0.66,0.98,0.66,1.61c0,0.63-0.22,1.17-0.66,1.61l1.5,1.5c0.29,0.29,0.65,0.44,1.07,0.44c0.42,0,0.78-0.15,1.07-0.44
		l10.77-10.78c0.29-0.29,0.44-0.65,0.44-1.07C35.29,22.18,35.15,21.82,34.85,21.53L34.85,21.53z M31.64,23.9l-7.33,7.34
		c-0.14,0.14-0.32,0.21-0.53,0.21c-0.21,0-0.39-0.07-0.53-0.21l-4.3-4.3c-0.15-0.15-0.23-0.33-0.23-0.53c0-0.21,0.07-0.38,0.23-0.53
		l7.33-7.34c0.14-0.14,0.32-0.21,0.54-0.21c0.21,0,0.39,0.07,0.53,0.21l4.3,4.3c0.15,0.15,0.23,0.33,0.23,0.53
		C31.86,23.57,31.79,23.75,31.64,23.9L31.64,23.9z M31.64,23.9"/>
	<path d="M26.81,19.62l3.75,3.75l-6.79,6.79l-3.75-3.75L26.81,19.62z M26.81,19.62"/>
</g>
</svg>
