<?xml version="1.0" encoding="utf-8"?>
<!-- Generator: Adobe Illustrator 23.0.1, SVG Export Plug-In . SVG Version: 6.00 Build 0)  -->
<svg version="1.1" id="Layer_1" xmlns="http://www.w3.org/2000/svg" xmlns:xlink="http://www.w3.org/1999/xlink" x="0px" y="0px"
	 viewBox="0 0 100 100" style="enable-background:new 0 0 100 100;" xml:space="preserve">
<style type="text/css">
	.st0{fill:#DDDDDD;}
	.st1{fill:#FD6B3A;}
</style>
<g>
	<rect width="100" height="100"/>
	<path class="st0" d="M60.61,53.86l2.29-3.13l1.22-9.03c-0.71-1.38-0.85-1.87-0.87-3.01c-0.04-1.95,0.18-5.25,0.19-5.77
		c0.03-1.34,1.35-1.27,1.45-0.29l0.25,2.49l0.53-0.9c0.12-2.42,0.36-6.29,0.36-6.29c0-0.39,0.3-0.71,0.69-0.71s0.78,0.32,0.78,0.72
		v26.28l-2.27,3.06l-1.41-1.05l-2.03-1.51 M38.9,54.72l-2.03,1.51l-1.41,1.05l-2.27-3.06V27.94c0-0.39,0.39-0.71,0.78-0.72
		c0.39,0,0.69,0.32,0.69,0.71c0,0,0.24,3.87,0.36,6.29l0.53,0.9l0.25-2.49c0.1-0.97,1.42-1.04,1.45,0.29
		c0.01,0.52,0.23,3.82,0.19,5.77c-0.02,1.15-0.16,1.64-0.87,3.01l1.22,9.03l2.29,3.13 M54.11,42.48c2.5,2.14,3.07,4.8,3.07,7.46
		c0,3.78-3.06,6.84-6.84,6.84s-6.84-3.06-6.84-6.84c0-2.65,0.57-5.31,3.07-7.46c0.72-0.16,2.47-0.39,3.78-0.39
		C51.64,42.09,53.39,42.32,54.11,42.48z M45.06,48.7c0.3-0.01,0.59-0.1,1.12-0.27c0.89-0.29,2.12-0.69,4.15-0.69
		c2.03,0,3.26,0.4,4.15,0.69c0.53,0.17,0.82,0.27,1.12,0.27c-0.17-2.08-0.85-3.55-2.2-4.81c-0.77-0.14-2.09-0.28-3.07-0.28
		c-0.96,0-2.26,0.15-3.03,0.28C45.93,45.17,45.24,46.63,45.06,48.7z"/>
	<path class="st1" d="M65.21,57.28l1.23,0.92l-6.66,8.96v4.36c-0.9,0.39-1.91,0.72-3,0.98v-6.82l7.02-9.45l-2.03-1.51l-7.52,10.12
		v8.14c-0.84,0.11-1.71,0.19-2.61,0.23v-7.69c0-0.7-0.57-1.27-1.27-1.27s-1.27,0.57-1.27,1.27v7.69c-0.93-0.04-1.83-0.12-2.7-0.24
		v-8.14l-7.5-10.11l-2.03,1.51l7.02,9.45v6.82c-1.05-0.26-2.03-0.57-2.91-0.94v-4.27l-6.75-9.09l1.24-0.92l4.61-3.42l1.48-1.1
		l6.59,8.87h4.41l6.59-8.87l1.48,1.1L65.21,57.28z"/>
</g>
</svg>
